<svg width="598" height="251" viewBox="0 0 598 251" fill="none" xmlns="http://www.w3.org/2000/svg">
<g filter="url(#filter0_d)">
<path d="M77.7936 219.844C64.5456 219.865 52.638 217.58 42.0707 212.989C31.6952 208.205 23.5249 201.69 17.5598 193.443C11.5945 185.005 8.50719 175.314 8.29791 164.37L36.2339 164.326C37.2087 173.732 41.0613 181.694 47.7916 188.212C54.7136 194.537 64.7026 197.689 77.7586 197.668C90.2386 197.649 100.026 194.561 107.12 188.406C114.406 182.058 118.041 173.989 118.026 164.197C118.014 156.517 115.892 150.28 111.66 145.487C107.429 140.693 102.143 137.054 95.803 134.568C89.463 132.082 80.9148 129.407 70.1583 126.544C56.9048 123.109 46.2434 119.67 38.1739 116.227C30.2965 112.783 23.472 107.418 17.7005 100.131C12.1207 92.6518 9.32089 82.6722 9.30118 70.1923C9.2839 59.2483 12.0526 49.5479 17.6072 41.0911C23.1619 32.6343 30.9276 26.094 40.9043 21.4703C51.073 16.8462 62.6853 14.5239 75.7413 14.5033C94.5573 14.4735 109.925 19.1533 121.844 28.5425C133.954 37.9314 140.79 50.4006 142.351 65.9501L113.551 65.9956C112.579 58.3171 108.536 51.6035 101.423 45.8547C94.3095 39.914 84.8968 36.9528 73.1848 36.9713C62.2408 36.9886 53.3174 39.8827 46.4145 45.6536C39.5113 51.2325 36.0677 59.11 36.0838 69.286C36.0953 76.582 38.1207 82.5308 42.16 87.1324C46.3912 91.7337 51.4849 95.2777 57.4408 97.7643C63.5884 100.059 72.1367 102.733 83.0855 105.788C96.3392 109.415 107.001 113.046 115.071 116.681C123.14 120.125 130.061 125.586 135.833 133.065C141.604 140.351 144.5 150.331 144.52 163.003C144.535 172.795 141.958 182.015 136.788 190.663C131.617 199.311 123.948 206.331 113.781 211.723C103.613 217.116 91.6176 219.822 77.7936 219.844ZM386.475 18.0445L386.789 217.34L360.581 217.382L360.347 68.7739L294.341 217.486L275.909 217.515L209.146 68.7246L209.382 217.62L183.174 217.662L182.859 18.3661L211.083 18.3215L285.071 182.941L358.539 18.0886L386.475 18.0445ZM494.887 219.186C481.639 219.206 469.731 216.921 459.164 212.33C448.788 207.546 440.618 201.031 434.653 192.785C428.688 184.346 425.6 174.655 425.391 163.711L453.327 163.667C454.302 173.074 458.155 181.036 464.885 187.553C471.807 193.878 481.796 197.03 494.852 197.01C507.332 196.99 517.119 193.902 524.213 187.747C531.499 181.4 535.134 173.33 535.119 163.538C535.107 155.858 532.985 149.621 528.753 144.828C524.522 140.035 519.236 136.395 512.896 133.909C506.556 131.423 498.008 128.749 487.251 125.886C473.998 122.45 463.337 119.011 455.267 115.568C447.39 112.124 440.565 106.759 434.794 99.4723C429.214 91.9931 426.414 82.0135 426.394 69.5336C426.377 58.5896 429.146 48.8892 434.7 40.4324C440.255 31.9756 448.021 25.4353 457.998 20.8116C468.166 16.1875 479.779 13.8652 492.835 13.8445C511.651 13.8148 527.018 18.4946 538.937 27.8838C551.048 37.2726 557.883 49.7419 559.444 65.2914L530.644 65.3369C529.672 57.6584 525.629 50.9448 518.516 45.196C511.403 39.2553 501.99 36.2941 490.278 36.3126C479.334 36.3299 470.411 39.224 463.508 44.9949C456.605 50.5738 453.161 58.4513 453.177 68.6272C453.189 75.9232 455.214 81.8721 459.253 86.4737C463.484 91.075 468.578 94.619 474.534 97.1056C480.682 99.3998 489.23 102.074 500.179 105.129C513.432 108.756 524.094 112.387 532.164 116.023C540.233 119.466 547.154 124.927 552.926 132.406C558.697 139.693 561.593 149.672 561.613 162.344C561.629 172.136 559.051 181.356 553.881 190.004C548.71 198.653 541.042 205.673 530.874 211.065C520.707 216.457 508.711 219.164 494.887 219.186Z" fill="url(#paint0_linear)"/>
</g>
<defs>
<filter id="filter0_d" x="0.297913" y="0.84441" width="597.315" height="250" filterUnits="userSpaceOnUse" color-interpolation-filters="sRGB">
<feFlood flood-opacity="0" result="BackgroundImageFix"/>
<feColorMatrix in="SourceAlpha" type="matrix" values="0 0 0 0 0 0 0 0 0 0 0 0 0 0 0 0 0 0 127 0"/>
<feOffset dx="14" dy="9"/>
<feGaussianBlur stdDeviation="11"/>
<feColorMatrix type="matrix" values="0 0 0 0 0 0 0 0 0 0 0 0 0 0 0 0 0 0 0.47 0"/>
<feBlend mode="normal" in2="BackgroundImageFix" result="effect1_dropShadow"/>
<feBlend mode="normal" in="SourceGraphic" in2="effect1_dropShadow" result="shape"/>
</filter>
<linearGradient id="paint0_linear" x1="562.884" y1="116.062" x2="26.8669" y2="116.909" gradientUnits="userSpaceOnUse">
<stop stop-color="#00FF66"/>
<stop offset="1" stop-color="#10CDF7"/>
</linearGradient>
</defs>
</svg>
